<svg width="659" height="98" viewBox="0 0 659 98" fill="none" xmlns="http://www.w3.org/2000/svg">
<path d="M79.4502 96H57.3604L39.8408 66.6104L22.2578 96H0.294922L28.2246 50.4873L0.294922 4.97461H22.2578L39.8408 34.3643L57.3604 4.97461H79.4502L51.5205 50.4873L79.4502 96ZM108.205 79.3691C108.882 79.5807 109.559 79.7288 110.236 79.8135C110.913 79.8558 111.59 79.877 112.268 79.877C113.96 79.877 115.59 79.6442 117.155 79.1787C118.721 78.7132 120.181 78.0573 121.535 77.2109C122.932 76.3223 124.159 75.2643 125.217 74.0371C126.317 72.7676 127.206 71.3711 127.883 69.8477L140.578 82.6064C138.97 84.8916 137.108 86.944 134.992 88.7637C132.919 90.5833 130.655 92.1279 128.2 93.3975C125.788 94.667 123.228 95.6191 120.52 96.2539C117.854 96.931 115.103 97.2695 112.268 97.2695C107.486 97.2695 102.979 96.3809 98.7471 94.6035C94.5576 92.8262 90.876 90.3506 87.7021 87.1768C84.5706 84.0029 82.0951 80.2367 80.2754 75.8779C78.4557 71.4769 77.5459 66.6527 77.5459 61.4053C77.5459 56.0309 78.4557 51.1221 80.2754 46.6787C82.0951 42.2354 84.5706 38.4479 87.7021 35.3164C90.876 32.1849 94.5576 29.7516 98.7471 28.0166C102.979 26.2816 107.486 25.4141 112.268 25.4141C115.103 25.4141 117.875 25.7526 120.583 26.4297C123.291 27.1068 125.852 28.0801 128.264 29.3496C130.718 30.6191 133.003 32.1849 135.119 34.0469C137.235 35.8665 139.097 37.9189 140.705 40.2041L108.205 79.3691ZM117.092 43.6318C116.288 43.3356 115.484 43.1452 114.68 43.0605C113.918 42.9759 113.114 42.9336 112.268 42.9336C109.898 42.9336 107.655 43.3779 105.539 44.2666C103.465 45.113 101.646 46.3402 100.08 47.9482C98.5566 49.5563 97.3506 51.5029 96.4619 53.7881C95.5732 56.0309 95.1289 58.57 95.1289 61.4053C95.1289 62.04 95.1501 62.7594 95.1924 63.5635C95.277 64.3675 95.3828 65.1927 95.5098 66.0391C95.679 66.8431 95.8695 67.626 96.0811 68.3877C96.2926 69.1494 96.5677 69.8265 96.9062 70.4189L117.092 43.6318ZM166.794 96H149.465V28.0166H153.654L159.367 34.6182C162.16 32.0791 165.313 30.1325 168.825 28.7783C172.38 27.3818 176.083 26.6836 179.934 26.6836C184.081 26.6836 187.995 27.4876 191.677 29.0957C195.358 30.6615 198.575 32.8408 201.325 35.6338C204.076 38.3844 206.234 41.6217 207.8 45.3457C209.408 49.0273 210.212 52.9629 210.212 57.1523V96H192.883V57.1523C192.883 55.375 192.544 53.7035 191.867 52.1377C191.19 50.5296 190.259 49.1331 189.074 47.9482C187.889 46.7633 186.514 45.8324 184.948 45.1553C183.382 44.4782 181.711 44.1396 179.934 44.1396C178.114 44.1396 176.4 44.4782 174.792 45.1553C173.184 45.8324 171.787 46.7633 170.603 47.9482C169.418 49.1331 168.487 50.5296 167.81 52.1377C167.132 53.7035 166.794 55.375 166.794 57.1523V96ZM288.288 96H284.099L277.37 86.6689C275.72 88.1501 273.964 89.5465 272.102 90.8584C270.282 92.1279 268.356 93.2493 266.325 94.2227C264.294 95.1536 262.199 95.8942 260.041 96.4443C257.925 96.9945 255.767 97.2695 253.566 97.2695C248.785 97.2695 244.278 96.3809 240.046 94.6035C235.856 92.7839 232.175 90.2871 229.001 87.1133C225.869 83.8971 223.394 80.1097 221.574 75.751C219.755 71.3499 218.845 66.568 218.845 61.4053C218.845 56.2848 219.755 51.5241 221.574 47.123C223.394 42.722 225.869 38.9134 229.001 35.6973C232.175 32.4811 235.856 29.9632 240.046 28.1436C244.278 26.3239 248.785 25.4141 253.566 25.4141C255.09 25.4141 256.656 25.541 258.264 25.7949C259.914 26.0488 261.501 26.472 263.024 27.0645C264.59 27.6146 266.05 28.3551 267.404 29.2861C268.758 30.2171 269.901 31.3597 270.832 32.7139V0.975586H288.288V96ZM270.832 61.4053C270.832 59.0355 270.367 56.7503 269.436 54.5498C268.547 52.307 267.32 50.3392 265.754 48.6465C264.188 46.9115 262.347 45.5361 260.231 44.5205C258.158 43.4626 255.936 42.9336 253.566 42.9336C251.197 42.9336 248.954 43.3568 246.838 44.2031C244.764 45.0495 242.945 46.2767 241.379 47.8848C239.855 49.4505 238.649 51.376 237.761 53.6611C236.872 55.9463 236.428 58.5277 236.428 61.4053C236.428 63.902 236.872 66.2718 237.761 68.5146C238.649 70.7575 239.855 72.7253 241.379 74.418C242.945 76.1107 244.764 77.4437 246.838 78.417C248.954 79.3903 251.197 79.877 253.566 79.877C255.936 79.877 258.158 79.3691 260.231 78.3535C262.347 77.2956 264.188 75.9202 265.754 74.2275C267.32 72.4925 268.547 70.5247 269.436 68.3242C270.367 66.0814 270.832 63.7751 270.832 61.4053Z" fill="#30C070"/>
<path d="M387.375 71.4346C387.375 74.9893 386.698 78.3535 385.344 81.5273C383.99 84.6589 382.128 87.3883 379.758 89.7158C377.43 92.0433 374.68 93.8841 371.506 95.2383C368.374 96.5924 365.01 97.2695 361.413 97.2695C358.197 97.2695 355.108 96.7194 352.146 95.6191C349.183 94.4766 346.496 92.8262 344.084 90.668C341.714 92.8262 339.048 94.4766 336.086 95.6191C333.166 96.7194 330.077 97.2695 326.818 97.2695C323.221 97.2695 319.857 96.5924 316.726 95.2383C313.594 93.8841 310.843 92.0433 308.474 89.7158C306.146 87.3883 304.305 84.6589 302.951 81.5273C301.597 78.3535 300.92 74.9893 300.92 71.4346V28.1436H318.249V71.4346C318.249 72.6195 318.461 73.7409 318.884 74.7988C319.349 75.8145 319.963 76.7243 320.725 77.5283C321.529 78.29 322.438 78.9036 323.454 79.3691C324.512 79.7923 325.633 80.0039 326.818 80.0039C328.003 80.0039 329.125 79.7923 330.183 79.3691C331.241 78.9036 332.172 78.29 332.976 77.5283C333.78 76.7243 334.393 75.8145 334.816 74.7988C335.282 73.7409 335.515 72.6195 335.515 71.4346V28.1436H352.78V71.4346C352.78 72.6195 353.013 73.7409 353.479 74.7988C353.944 75.8145 354.558 76.7243 355.319 77.5283C356.123 78.29 357.033 78.9036 358.049 79.3691C359.107 79.7923 360.228 80.0039 361.413 80.0039C362.598 80.0039 363.719 79.7923 364.777 79.3691C365.835 78.9036 366.745 78.29 367.507 77.5283C368.311 76.7243 368.946 75.8145 369.411 74.7988C369.877 73.7409 370.109 72.6195 370.109 71.4346V28.1436H387.375V71.4346ZM465.642 61.4053C465.642 66.4834 464.732 71.223 462.912 75.624C461.092 79.9827 458.617 83.7702 455.485 86.9863C452.354 90.1602 448.672 92.6781 444.44 94.54C440.251 96.3597 435.744 97.2695 430.92 97.2695C426.138 97.2695 421.631 96.3597 417.399 94.54C413.21 92.6781 409.528 90.1602 406.354 86.9863C403.223 83.7702 400.747 79.9827 398.928 75.624C397.108 71.223 396.198 66.4834 396.198 61.4053C396.198 56.2425 397.108 51.4606 398.928 47.0596C400.747 42.6585 403.223 38.8711 406.354 35.6973C409.528 32.4811 413.21 29.9632 417.399 28.1436C421.631 26.3239 426.138 25.4141 430.92 25.4141C435.744 25.4141 440.251 26.2816 444.44 28.0166C448.672 29.7093 452.354 32.1426 455.485 35.3164C458.617 38.4479 461.092 42.2354 462.912 46.6787C464.732 51.0798 465.642 55.9886 465.642 61.4053ZM448.186 61.4053C448.186 58.6123 447.72 56.0944 446.789 53.8516C445.9 51.5664 444.673 49.6198 443.107 48.0117C441.542 46.3613 439.701 45.113 437.585 44.2666C435.511 43.3779 433.29 42.9336 430.92 42.9336C428.55 42.9336 426.307 43.3779 424.191 44.2666C422.118 45.113 420.298 46.3613 418.732 48.0117C417.209 49.6198 416.003 51.5664 415.114 53.8516C414.226 56.0944 413.781 58.6123 413.781 61.4053C413.781 64.029 414.226 66.4622 415.114 68.7051C416.003 70.9479 417.209 72.8945 418.732 74.5449C420.298 76.1953 422.118 77.5072 424.191 78.4805C426.307 79.4115 428.55 79.877 430.92 79.877C433.29 79.877 435.511 79.4326 437.585 78.5439C439.701 77.6553 441.542 76.4069 443.107 74.7988C444.673 73.1908 445.9 71.2441 446.789 68.959C447.72 66.6738 448.186 64.1559 448.186 61.4053ZM492.556 96H475.227V28.0166H479.416L485.129 36.0781C487.922 33.5391 491.096 31.5924 494.65 30.2383C498.205 28.8418 501.887 28.1436 505.695 28.1436H520.993V45.4092H505.695C503.876 45.4092 502.162 45.7477 500.554 46.4248C498.946 47.1019 497.549 48.0329 496.364 49.2178C495.179 50.4027 494.248 51.7992 493.571 53.4072C492.894 55.0153 492.556 56.7292 492.556 58.5488V96ZM546.511 96H529.055V0.975586H546.511V60.8975L572.346 28.1436H592.277L569.743 56.4541L592.277 96H572.346L558.571 71.3076L546.511 87.3037V96ZM636.457 96H596.848V78.7344H636.457C637.642 78.7344 638.658 78.3112 639.504 77.4648C640.35 76.6185 640.773 75.6029 640.773 74.418C640.773 73.1908 640.35 72.3867 639.504 72.0059C638.658 71.625 637.642 71.4346 636.457 71.4346H618.43C615.425 71.4346 612.611 70.8633 609.987 69.7207C607.364 68.5781 605.078 67.0335 603.132 65.0869C601.185 63.098 599.641 60.7917 598.498 58.168C597.398 55.5443 596.848 52.7301 596.848 49.7256C596.848 46.721 597.398 43.9069 598.498 41.2832C599.641 38.6595 601.185 36.3743 603.132 34.4277C605.078 32.4811 607.364 30.9577 609.987 29.8574C612.611 28.7148 615.425 28.1436 618.43 28.1436H653.532V45.4092H618.43C617.245 45.4092 616.229 45.8324 615.383 46.6787C614.536 47.5251 614.113 48.5407 614.113 49.7256C614.113 50.9528 614.536 52.0107 615.383 52.8994C616.229 53.7458 617.245 54.1689 618.43 54.1689H636.457C639.419 54.1689 642.212 54.6768 644.836 55.6924C647.46 56.6657 649.745 58.041 651.691 59.8184C653.638 61.5957 655.183 63.7327 656.325 66.2295C657.468 68.7262 658.039 71.4557 658.039 74.418C658.039 77.4225 657.468 80.2367 656.325 82.8604C655.183 85.4417 653.638 87.7269 651.691 89.7158C649.745 91.6624 647.46 93.207 644.836 94.3496C642.212 95.4499 639.419 96 636.457 96Z" fill="white"/>
</svg>
