<svg width="759" height="75" viewBox="0 0 759 75" fill="none" xmlns="http://www.w3.org/2000/svg">
<path d="M47.16 67L31.95 45.13L17.01 67H0.27L23.58 34.96L1.44 4H18L32.49 24.43L46.71 4H62.46L40.5 34.42L63.99 67H47.16ZM92.3934 56.47C94.9134 56.47 97.1334 56.11 99.0534 55.39C101.033 54.61 102.863 53.41 104.543 51.79L112.013 59.89C107.453 65.11 100.793 67.72 92.0334 67.72C86.5734 67.72 81.7434 66.67 77.5434 64.57C73.3434 62.41 70.1034 59.44 67.8234 55.66C65.5434 51.88 64.4034 47.59 64.4034 42.79C64.4034 38.05 65.5134 33.79 67.7334 30.01C70.0134 26.17 73.1034 23.2 77.0034 21.1C80.9634 18.94 85.4034 17.86 90.3234 17.86C94.9434 17.86 99.1434 18.85 102.923 20.83C106.703 22.75 109.703 25.57 111.923 29.29C114.203 32.95 115.343 37.3 115.343 42.34L79.5234 49.27C80.5434 51.67 82.1334 53.47 84.2934 54.67C86.5134 55.87 89.2134 56.47 92.3934 56.47ZM90.3234 28.48C86.7834 28.48 83.9034 29.62 81.6834 31.9C79.4634 34.18 78.2934 37.33 78.1734 41.35L101.753 36.76C101.093 34.24 99.7434 32.23 97.7034 30.73C95.6634 29.23 93.2034 28.48 90.3234 28.48ZM154.211 17.86C160.211 17.86 165.041 19.66 168.701 23.26C172.421 26.86 174.281 32.2 174.281 39.28V67H160.241V41.44C160.241 37.6 159.401 34.75 157.721 32.89C156.041 30.97 153.611 30.01 150.431 30.01C146.891 30.01 144.071 31.12 141.971 33.34C139.871 35.5 138.821 38.74 138.821 43.06V67H124.781V18.58H138.191V24.25C140.051 22.21 142.361 20.65 145.121 19.57C147.881 18.43 150.911 17.86 154.211 17.86ZM236.855 0.219996V67H223.445V61.42C219.965 65.62 214.925 67.72 208.325 67.72C203.765 67.72 199.625 66.7 195.905 64.66C192.245 62.62 189.365 59.71 187.265 55.93C185.165 52.15 184.115 47.77 184.115 42.79C184.115 37.81 185.165 33.43 187.265 29.65C189.365 25.87 192.245 22.96 195.905 20.92C199.625 18.88 203.765 17.86 208.325 17.86C214.505 17.86 219.335 19.81 222.815 23.71V0.219996H236.855ZM210.755 56.2C214.295 56.2 217.235 55 219.575 52.6C221.915 50.14 223.085 46.87 223.085 42.79C223.085 38.71 221.915 35.47 219.575 33.07C217.235 30.61 214.295 29.38 210.755 29.38C207.155 29.38 204.185 30.61 201.845 33.07C199.505 35.47 198.335 38.71 198.335 42.79C198.335 46.87 199.505 50.14 201.845 52.6C204.185 55 207.155 56.2 210.755 56.2Z" fill="#30C070"/>
<path d="M326.439 18.58V45.31C326.439 52.45 324.489 57.97 320.589 61.87C316.689 65.77 311.139 67.72 303.939 67.72C300.459 67.72 297.369 67.18 294.669 66.1C292.029 65.02 289.809 63.28 288.009 60.88C286.209 63.28 283.989 65.02 281.349 66.1C278.709 67.18 275.589 67.72 271.989 67.72C264.729 67.72 259.179 65.77 255.339 61.87C251.499 57.97 249.579 52.45 249.579 45.31V18.58H263.619V44.23C263.619 48.25 264.309 51.22 265.689 53.14C267.069 55 269.229 55.93 272.169 55.93C275.169 55.93 277.389 54.97 278.829 53.05C280.269 51.13 280.989 48.19 280.989 44.23V18.58H295.029V44.23C295.029 48.19 295.749 51.13 297.189 53.05C298.629 54.97 300.849 55.93 303.849 55.93C306.789 55.93 308.949 55 310.329 53.14C311.709 51.22 312.399 48.25 312.399 44.23V18.58H326.439ZM362.098 67.72C356.998 67.72 352.408 66.67 348.328 64.57C344.308 62.41 341.158 59.44 338.878 55.66C336.598 51.88 335.458 47.59 335.458 42.79C335.458 37.99 336.598 33.7 338.878 29.92C341.158 26.14 344.308 23.2 348.328 21.1C352.408 18.94 356.998 17.86 362.098 17.86C367.198 17.86 371.758 18.94 375.778 21.1C379.798 23.2 382.948 26.14 385.228 29.92C387.508 33.7 388.648 37.99 388.648 42.79C388.648 47.59 387.508 51.88 385.228 55.66C382.948 59.44 379.798 62.41 375.778 64.57C371.758 66.67 367.198 67.72 362.098 67.72ZM362.098 56.2C365.698 56.2 368.638 55 370.918 52.6C373.258 50.14 374.428 46.87 374.428 42.79C374.428 38.71 373.258 35.47 370.918 33.07C368.638 30.61 365.698 29.38 362.098 29.38C358.498 29.38 355.528 30.61 353.188 33.07C350.848 35.47 349.678 38.71 349.678 42.79C349.678 46.87 350.848 50.14 353.188 52.6C355.528 55 358.498 56.2 362.098 56.2ZM411.443 24.97C413.123 22.63 415.373 20.86 418.193 19.66C421.073 18.46 424.373 17.86 428.093 17.86V30.82C426.533 30.7 425.483 30.64 424.943 30.64C420.923 30.64 417.773 31.78 415.493 34.06C413.213 36.28 412.073 39.64 412.073 44.14V67H398.033V18.58H411.443V24.97ZM457.231 48.01L450.481 54.67V67H436.441V0.219996H450.481V38.02L471.001 18.58H487.741L467.581 39.1L489.541 67H472.531L457.231 48.01ZM510.563 67.72C506.543 67.72 502.613 67.24 498.773 66.28C494.933 65.26 491.873 64 489.593 62.5L494.273 52.42C496.433 53.8 499.043 54.94 502.103 55.84C505.163 56.68 508.163 57.1 511.103 57.1C517.043 57.1 520.013 55.63 520.013 52.69C520.013 51.31 519.203 50.32 517.583 49.72C515.963 49.12 513.473 48.61 510.113 48.19C506.153 47.59 502.883 46.9 500.303 46.12C497.723 45.34 495.473 43.96 493.553 41.98C491.693 40 490.763 37.18 490.763 33.52C490.763 30.46 491.633 27.76 493.373 25.42C495.173 23.02 497.753 21.16 501.113 19.84C504.533 18.52 508.553 17.86 513.173 17.86C516.593 17.86 519.983 18.25 523.343 19.03C526.763 19.75 529.583 20.77 531.803 22.09L527.123 32.08C522.863 29.68 518.213 28.48 513.173 28.48C510.173 28.48 507.923 28.9 506.423 29.74C504.923 30.58 504.173 31.66 504.173 32.98C504.173 34.48 504.983 35.53 506.603 36.13C508.223 36.73 510.803 37.3 514.343 37.84C518.303 38.5 521.543 39.22 524.063 40C526.583 40.72 528.773 42.07 530.633 44.05C532.493 46.03 533.423 48.79 533.423 52.33C533.423 55.33 532.523 58 530.723 60.34C528.923 62.68 526.283 64.51 522.803 65.83C519.383 67.09 515.303 67.72 510.563 67.72ZM587.919 41.1V67H581.925V56.381H570.159V67H564.165V41.1H570.159V51.312H581.925V41.1H587.919ZM603.667 62.671C604.703 62.671 605.615 62.523 606.405 62.227C607.219 61.9063 607.971 61.413 608.662 60.747L611.733 64.077C609.858 66.223 607.12 67.296 603.519 67.296C601.274 67.296 599.288 66.8643 597.562 66.001C595.835 65.113 594.503 63.892 593.566 62.338C592.628 60.784 592.16 59.0203 592.16 57.047C592.16 55.0983 592.616 53.347 593.529 51.793C594.466 50.2143 595.736 48.9933 597.34 48.13C598.968 47.242 600.793 46.798 602.816 46.798C604.715 46.798 606.442 47.205 607.996 48.019C609.55 48.8083 610.783 49.9677 611.696 51.497C612.633 53.0017 613.102 54.79 613.102 56.862L598.376 59.711C598.795 60.6977 599.449 61.4377 600.337 61.931C601.249 62.4243 602.359 62.671 603.667 62.671ZM602.816 51.164C601.36 51.164 600.176 51.6327 599.264 52.57C598.351 53.5073 597.87 54.8023 597.821 56.455L607.515 54.568C607.243 53.532 606.688 52.7057 605.85 52.089C605.011 51.4723 604 51.164 602.816 51.164ZM624.122 67.296C621.878 67.296 620.126 66.704 618.868 65.52C617.61 64.3113 616.981 62.6093 616.981 60.414V39.546H622.753V60.081C622.753 60.9197 622.963 61.5733 623.382 62.042C623.826 62.486 624.443 62.708 625.232 62.708C625.528 62.708 625.824 62.671 626.12 62.597C626.441 62.523 626.688 62.4367 626.86 62.338L627.119 66.815C626.157 67.1357 625.158 67.296 624.122 67.296ZM641.719 46.798C643.569 46.798 645.246 47.2297 646.751 48.093C648.28 48.9317 649.477 50.128 650.34 51.682C651.203 53.2113 651.635 54.9997 651.635 57.047C651.635 59.0943 651.203 60.895 650.34 62.449C649.477 63.9783 648.28 65.1747 646.751 66.038C645.246 66.8767 643.569 67.296 641.719 67.296C639.178 67.296 637.18 66.4943 635.725 64.891V74.178H629.953V47.094H635.466V49.388C636.897 47.6613 638.981 46.798 641.719 46.798ZM640.72 62.56C642.2 62.56 643.409 62.0667 644.346 61.08C645.308 60.0687 645.789 58.7243 645.789 57.047C645.789 55.3697 645.308 54.0377 644.346 53.051C643.409 52.0397 642.2 51.534 640.72 51.534C639.24 51.534 638.019 52.0397 637.057 53.051C636.12 54.0377 635.651 55.3697 635.651 57.047C635.651 58.7243 636.12 60.0687 637.057 61.08C638.019 62.0667 639.24 62.56 640.72 62.56ZM666.384 41.1H678.15C680.962 41.1 683.441 41.6427 685.587 42.728C687.758 43.7887 689.435 45.2933 690.619 47.242C691.828 49.1907 692.432 51.46 692.432 54.05C692.432 56.64 691.828 58.9093 690.619 60.858C689.435 62.8067 687.758 64.3237 685.587 65.409C683.441 66.4697 680.962 67 678.15 67H666.384V41.1ZM677.854 62.079C680.444 62.079 682.504 61.3637 684.033 59.933C685.587 58.4777 686.364 56.5167 686.364 54.05C686.364 51.5833 685.587 49.6347 684.033 48.204C682.504 46.7487 680.444 46.021 677.854 46.021H672.378V62.079H677.854ZM706.018 67.296C703.921 67.296 702.034 66.8643 700.357 66.001C698.704 65.113 697.409 63.892 696.472 62.338C695.535 60.784 695.066 59.0203 695.066 57.047C695.066 55.0737 695.535 53.31 696.472 51.756C697.409 50.202 698.704 48.9933 700.357 48.13C702.034 47.242 703.921 46.798 706.018 46.798C708.115 46.798 709.989 47.242 711.642 48.13C713.295 48.9933 714.59 50.202 715.527 51.756C716.464 53.31 716.933 55.0737 716.933 57.047C716.933 59.0203 716.464 60.784 715.527 62.338C714.59 63.892 713.295 65.113 711.642 66.001C709.989 66.8643 708.115 67.296 706.018 67.296ZM706.018 62.56C707.498 62.56 708.707 62.0667 709.644 61.08C710.606 60.0687 711.087 58.7243 711.087 57.047C711.087 55.3697 710.606 54.0377 709.644 53.051C708.707 52.0397 707.498 51.534 706.018 51.534C704.538 51.534 703.317 52.0397 702.355 53.051C701.393 54.0377 700.912 55.3697 700.912 57.047C700.912 58.7243 701.393 60.0687 702.355 61.08C703.317 62.0667 704.538 62.56 706.018 62.56ZM730.411 67.296C728.29 67.296 726.378 66.8643 724.676 66.001C722.999 65.113 721.679 63.892 720.717 62.338C719.78 60.784 719.311 59.0203 719.311 57.047C719.311 55.0737 719.78 53.31 720.717 51.756C721.679 50.202 722.999 48.9933 724.676 48.13C726.378 47.242 728.29 46.798 730.411 46.798C732.508 46.798 734.333 47.242 735.887 48.13C737.466 48.9933 738.613 50.239 739.328 51.867L734.851 54.272C733.815 52.4467 732.323 51.534 730.374 51.534C728.869 51.534 727.624 52.0273 726.637 53.014C725.65 54.0007 725.157 55.345 725.157 57.047C725.157 58.749 725.65 60.0933 726.637 61.08C727.624 62.0667 728.869 62.56 730.374 62.56C732.347 62.56 733.84 61.6473 734.851 59.822L739.328 62.264C738.613 63.8427 737.466 65.076 735.887 65.964C734.333 66.852 732.508 67.296 730.411 67.296ZM749.348 67.296C747.696 67.296 746.08 67.0987 744.501 66.704C742.923 66.2847 741.665 65.7667 740.727 65.15L742.651 61.006C743.539 61.5733 744.612 62.042 745.87 62.412C747.128 62.7573 748.362 62.93 749.57 62.93C752.012 62.93 753.233 62.3257 753.233 61.117C753.233 60.5497 752.9 60.1427 752.234 59.896C751.568 59.6493 750.545 59.4397 749.163 59.267C747.535 59.0203 746.191 58.7367 745.13 58.416C744.07 58.0953 743.145 57.528 742.355 56.714C741.591 55.9 741.208 54.7407 741.208 53.236C741.208 51.978 741.566 50.868 742.281 49.906C743.021 48.9193 744.082 48.1547 745.463 47.612C746.869 47.0693 748.522 46.798 750.421 46.798C751.827 46.798 753.221 46.9583 754.602 47.279C756.008 47.575 757.168 47.9943 758.08 48.537L756.156 52.644C754.405 51.6573 752.493 51.164 750.421 51.164C749.188 51.164 748.263 51.3367 747.646 51.682C747.03 52.0273 746.721 52.4713 746.721 53.014C746.721 53.6307 747.054 54.0623 747.72 54.309C748.386 54.5557 749.447 54.79 750.902 55.012C752.53 55.2833 753.862 55.5793 754.898 55.9C755.934 56.196 756.835 56.751 757.599 57.565C758.364 58.379 758.746 59.5137 758.746 60.969C758.746 62.2023 758.376 63.3 757.636 64.262C756.896 65.224 755.811 65.9763 754.38 66.519C752.974 67.037 751.297 67.296 749.348 67.296Z" fill="black"/>
</svg>
