<svg width="133" height="44" viewBox="0 0 133 44" fill="none" xmlns="http://www.w3.org/2000/svg">
<path d="M13.776 35L9.772 28.98L6.244 35H0.812L7.112 25.004L0.672 15.344H6.244L10.192 21.28L13.664 15.344H19.096L12.852 25.256L19.348 35H13.776ZM36.4796 26.936C36.4796 27.384 36.4516 27.8507 36.3956 28.336H25.5596C25.6343 29.3067 25.9423 30.0533 26.4836 30.576C27.0436 31.08 27.725 31.332 28.5276 31.332C29.7223 31.332 30.553 30.828 31.0196 29.82H36.1156C35.8543 30.8467 35.3783 31.7707 34.6876 32.592C34.0156 33.4133 33.1663 34.0573 32.1396 34.524C31.113 34.9907 29.965 35.224 28.6956 35.224C27.165 35.224 25.8023 34.8973 24.6076 34.244C23.413 33.5907 22.4796 32.6573 21.8076 31.444C21.1356 30.2307 20.7996 28.812 20.7996 27.188C20.7996 25.564 21.1263 24.1453 21.7796 22.932C22.4516 21.7187 23.385 20.7853 24.5796 20.132C25.7743 19.4787 27.1463 19.152 28.6956 19.152C30.2076 19.152 31.5516 19.4693 32.7276 20.104C33.9036 20.7387 34.8183 21.644 35.4716 22.82C36.1436 23.996 36.4796 25.368 36.4796 26.936ZM31.5796 25.676C31.5796 24.8547 31.2996 24.2013 30.7396 23.716C30.1796 23.2307 29.4796 22.988 28.6396 22.988C27.837 22.988 27.1556 23.2213 26.5956 23.688C26.0543 24.1547 25.7183 24.8173 25.5876 25.676H31.5796ZM48.5255 19.208C50.3549 19.208 51.8109 19.8053 52.8935 21C53.9949 22.176 54.5455 23.8 54.5455 25.872V35H49.7855V26.516C49.7855 25.4707 49.5149 24.6587 48.9735 24.08C48.4322 23.5013 47.7042 23.212 46.7895 23.212C45.8749 23.212 45.1469 23.5013 44.6055 24.08C44.0642 24.6587 43.7935 25.4707 43.7935 26.516V35H39.0055V19.376H43.7935V21.448C44.2789 20.7573 44.9322 20.216 45.7535 19.824C46.5749 19.4133 47.4989 19.208 48.5255 19.208ZM56.9207 27.16C56.9207 25.5547 57.2194 24.1453 57.8167 22.932C58.4327 21.7187 59.2634 20.7853 60.3087 20.132C61.3541 19.4787 62.5207 19.152 63.8087 19.152C64.8354 19.152 65.7687 19.3667 66.6087 19.796C67.4674 20.2253 68.1394 20.804 68.6247 21.532V14.28H73.4127V35H68.6247V32.76C68.1767 33.5067 67.5327 34.104 66.6927 34.552C65.8714 35 64.9101 35.224 63.8087 35.224C62.5207 35.224 61.3541 34.8973 60.3087 34.244C59.2634 33.572 58.4327 32.6293 57.8167 31.416C57.2194 30.184 56.9207 28.7653 56.9207 27.16ZM68.6247 27.188C68.6247 25.9933 68.2887 25.0507 67.6167 24.36C66.9634 23.6693 66.1607 23.324 65.2087 23.324C64.2567 23.324 63.4447 23.6693 62.7727 24.36C62.1194 25.032 61.7927 25.9653 61.7927 27.16C61.7927 28.3547 62.1194 29.3067 62.7727 30.016C63.4447 30.7067 64.2567 31.052 65.2087 31.052C66.1607 31.052 66.9634 30.7067 67.6167 30.016C68.2887 29.3253 68.6247 28.3827 68.6247 27.188ZM91.8566 21.672C91.8566 22.8107 91.5953 23.856 91.0726 24.808C90.55 25.7413 89.7473 26.4973 88.6646 27.076C87.582 27.6547 86.238 27.944 84.6326 27.944H81.6646V35H76.8766V15.344H84.6326C86.2006 15.344 87.526 15.6147 88.6086 16.156C89.6913 16.6973 90.5033 17.444 91.0446 18.396C91.586 19.348 91.8566 20.44 91.8566 21.672ZM84.2686 24.136C85.1833 24.136 85.8646 23.9213 86.3126 23.492C86.7606 23.0627 86.9846 22.456 86.9846 21.672C86.9846 20.888 86.7606 20.2813 86.3126 19.852C85.8646 19.4227 85.1833 19.208 84.2686 19.208H81.6646V24.136H84.2686ZM103.645 35.196C101.797 35.196 100.099 34.7667 98.5493 33.908C97.0186 33.0493 95.7959 31.8547 94.8813 30.324C93.9853 28.7747 93.5373 27.0387 93.5373 25.116C93.5373 23.1933 93.9853 21.4667 94.8813 19.936C95.7959 18.4053 97.0186 17.2107 98.5493 16.352C100.099 15.4933 101.797 15.064 103.645 15.064C105.493 15.064 107.183 15.4933 108.713 16.352C110.263 17.2107 111.476 18.4053 112.353 19.936C113.249 21.4667 113.697 23.1933 113.697 25.116C113.697 27.0387 113.249 28.7747 112.353 30.324C111.457 31.8547 110.244 33.0493 108.713 33.908C107.183 34.7667 105.493 35.196 103.645 35.196ZM103.645 30.828C105.213 30.828 106.464 30.3053 107.397 29.26C108.349 28.2147 108.825 26.8333 108.825 25.116C108.825 23.38 108.349 21.9987 107.397 20.972C106.464 19.9267 105.213 19.404 103.645 19.404C102.059 19.404 100.789 19.9173 99.8373 20.944C98.9039 21.9707 98.4373 23.3613 98.4373 25.116C98.4373 26.852 98.9039 28.2427 99.8373 29.288C100.789 30.3147 102.059 30.828 103.645 30.828ZM123.473 35.196C122.036 35.196 120.748 34.9627 119.609 34.496C118.47 34.0293 117.556 33.3387 116.865 32.424C116.193 31.5093 115.838 30.408 115.801 29.12H120.897C120.972 29.848 121.224 30.408 121.653 30.8C122.082 31.1733 122.642 31.36 123.333 31.36C124.042 31.36 124.602 31.2013 125.013 30.884C125.424 30.548 125.629 30.0907 125.629 29.512C125.629 29.0267 125.461 28.6253 125.125 28.308C124.808 27.9907 124.406 27.7293 123.921 27.524C123.454 27.3187 122.782 27.0853 121.905 26.824C120.636 26.432 119.6 26.04 118.797 25.648C117.994 25.256 117.304 24.6773 116.725 23.912C116.146 23.1467 115.857 22.148 115.857 20.916C115.857 19.0867 116.52 17.6587 117.845 16.632C119.17 15.5867 120.897 15.064 123.025 15.064C125.19 15.064 126.936 15.5867 128.261 16.632C129.586 17.6587 130.296 19.096 130.389 20.944H125.209C125.172 20.3093 124.938 19.8147 124.509 19.46C124.08 19.0867 123.529 18.9 122.857 18.9C122.278 18.9 121.812 19.0587 121.457 19.376C121.102 19.6747 120.925 20.1133 120.925 20.692C120.925 21.3267 121.224 21.8213 121.821 22.176C122.418 22.5307 123.352 22.9133 124.621 23.324C125.89 23.7533 126.917 24.164 127.701 24.556C128.504 24.948 129.194 25.5173 129.773 26.264C130.352 27.0107 130.641 27.972 130.641 29.148C130.641 30.268 130.352 31.2853 129.773 32.2C129.213 33.1147 128.392 33.8427 127.309 34.384C126.226 34.9253 124.948 35.196 123.473 35.196Z" fill="black"/>
<path d="M82 0H118C122.971 0 127 4.02944 127 9V9H82V0Z" fill="#E00000"/>
</svg>
