<svg width="880" height="149" viewBox="0 0 880 149" fill="none" xmlns="http://www.w3.org/2000/svg">
<path fill-rule="evenodd" clip-rule="evenodd" d="M1.7917e-09 16.2031H52.3921C53.4967 16.2031 54.3921 17.0986 54.3921 18.2031V70.5954H54.614C54.5401 70.5957 54.4662 70.5958 54.3922 70.5958C24.3522 70.5958 0 46.2436 0 16.2036C0 16.2034 1.7917e-09 16.2033 1.7917e-09 16.2031Z" fill="#30C070"/>
<path fill-rule="evenodd" clip-rule="evenodd" d="M146.001 0.843283C143.032 40.1906 110.166 71.1926 70.0585 71.1926C66.1939 71.1926 62.3965 70.9047 58.6865 70.3493C61.6554 31.0019 94.5217 0 134.629 0C138.494 0 142.291 0.287852 146.001 0.843283Z" fill="#30C070"/>
<path fill-rule="evenodd" clip-rule="evenodd" d="M58.6857 78.439C61.6545 117.786 94.5208 148.788 134.628 148.788C138.493 148.788 142.29 148.5 146 147.945C143.031 108.598 110.165 77.5957 70.0577 77.5957C66.193 77.5957 62.3956 77.8836 58.6857 78.439Z" fill="#30C070"/>
<path fill-rule="evenodd" clip-rule="evenodd" d="M0 132.578H52.3921C53.4967 132.578 54.3921 131.683 54.3921 130.578V78.1863C24.3523 78.1864 0.000232961 102.538 0 132.578Z" fill="#30C070"/>
<path d="M264.3 109L249.2 83.5L234 109H218.2L241.1 71.6L219.5 36H235L249.4 60L263.7 36H279.3L257.4 71.7L280.3 109H264.3ZM309.14 110.1C291.74 110.1 280.54 97.8 280.54 82.1C280.54 66.4 292.74 53.9 308.84 53.9C325.04 53.9 336.74 65.6 336.74 81.6V86.8H293.84C295.64 93.8 301.34 98.2 309.34 98.2C315.74 98.2 320.04 95.4 322.74 91L334.04 97.6C328.64 105.2 321.04 110.1 309.14 110.1ZM308.84 65.6C301.84 65.6 296.44 69.7 294.24 76H323.04C321.24 69.3 316.04 65.6 308.84 65.6ZM345.716 109V55H359.516V61.8C363.016 56.9 368.616 53.9 375.316 53.9C388.116 53.9 396.216 62.3 396.216 76.4V109H382.116V78.5C382.116 70.8 378.416 66 371.116 66C364.616 66 359.616 70.8 359.616 79.2V109H345.716ZM431.149 110.1C417.849 110.1 405.149 99.2 405.149 82C405.149 64.8 417.549 53.9 431.349 53.9C438.449 53.9 444.349 56.9 448.049 61.9V30.1H461.649V109H448.049V101.6C444.249 106.9 438.149 110.1 431.149 110.1ZM433.849 97.1C442.349 97.1 448.849 90.3 448.849 81.9C448.849 73.5 442.349 66.7 433.849 66.7C425.549 66.7 418.849 73.4 418.849 81.9C418.849 90.4 425.549 97.1 433.849 97.1ZM509.074 110C487.074 110 471.674 93.2 471.674 72.5C471.674 51.2 487.874 35 509.074 35C523.074 35 534.974 42.3 541.474 53.2L529.074 61C525.174 53.5 518.274 48.8 509.174 48.8C495.774 48.8 485.974 59.3 485.974 72.5C485.974 85.4 495.674 96 508.974 96C518.974 96 526.074 90.4 529.674 82.5L542.574 89.4C536.374 101.6 524.374 110 509.074 110ZM567.695 110.1C555.895 110.1 548.895 103.5 548.895 94C548.895 82.8 558.195 75.9 573.195 75.9H587.395V75.2C587.395 69.4 583.495 65.4 575.695 65.4C569.595 65.4 565.495 68 562.995 72.5L550.295 66.2C555.795 59 563.695 53.9 575.795 53.9C591.695 53.9 600.795 62.2 600.795 75.8V109H587.495V100.7C583.595 106.3 576.195 110.1 567.695 110.1ZM571.695 98.7C578.295 98.7 584.795 94.7 587.495 88.9V86H574.795C566.595 86 563.295 88.6 563.295 92.8C563.295 96.7 565.995 98.7 571.695 98.7ZM611.439 109V55H625.239V61.4C628.539 56.7 633.739 53.9 640.239 53.9C648.339 53.9 653.839 57.2 656.739 63C660.139 57.4 666.239 53.9 673.639 53.9C687.339 53.9 694.239 62.3 694.239 75.8V109H680.039V77.8C680.039 70.5 677.039 66 670.039 66C663.839 66 659.739 70.2 659.739 78.7V109H645.639V77.4C645.639 70.2 642.639 66 635.939 66C629.439 66 625.339 70.3 625.339 79V109H611.439ZM735.498 110.1C728.198 110.1 722.098 107.4 718.498 102.4V130.6H704.798V55H718.398V62.5C721.998 57.2 728.098 53.9 735.398 53.9C748.998 53.9 761.398 64.8 761.398 82C761.398 99.2 748.798 110.1 735.498 110.1ZM732.698 97.1C740.998 97.1 747.598 90.4 747.598 81.9C747.598 73.4 740.998 66.7 732.698 66.7C724.198 66.7 717.698 73.5 717.698 81.9C717.698 90.3 724.198 97.1 732.698 97.1ZM791.226 110.1C777.926 110.1 770.226 101.6 770.226 87.4V55H784.326V85.5C784.326 93.1 787.926 97.8 795.326 97.8C801.826 97.8 806.626 93.1 806.626 84.7V55L820.626 54.9V108.9L806.826 109V102.2C803.326 107.1 797.826 110.1 791.226 110.1ZM852.959 110.1C840.159 110.1 832.059 105.3 827.759 96.7L841.059 91.5C843.459 96.3 847.759 98.8 853.459 98.8C859.059 98.8 862.059 96.1 862.059 92.9C862.059 89 856.259 88.1 849.359 86.7C840.259 84.8 830.159 82 830.159 70.6C830.159 61.5 838.959 53.6 852.259 53.7C863.659 53.7 870.459 58 875.459 65.2L862.859 70.3C860.659 66.7 857.259 64.6 852.259 64.6C846.859 64.6 844.259 66.8 844.259 69.8C844.259 73.2 848.659 74.1 856.559 75.8C865.559 77.6 876.159 80.7 876.159 92.3C876.159 100.7 868.659 110.2 852.959 110.1Z" fill="#282828"/>
</svg>
