<svg width="150" height="42" viewBox="0 0 150 42" fill="none" xmlns="http://www.w3.org/2000/svg">
<path d="M13.776 33L9.772 26.98L6.244 33H0.812L7.112 23.004L0.672 13.344H6.244L10.192 19.28L13.664 13.344H19.096L12.852 23.256L19.348 33H13.776ZM36.4796 24.936C36.4796 25.384 36.4516 25.8507 36.3956 26.336H25.5596C25.6343 27.3067 25.9423 28.0533 26.4836 28.576C27.0436 29.08 27.725 29.332 28.5276 29.332C29.7223 29.332 30.553 28.828 31.0196 27.82H36.1156C35.8543 28.8467 35.3783 29.7707 34.6876 30.592C34.0156 31.4133 33.1663 32.0573 32.1396 32.524C31.113 32.9907 29.965 33.224 28.6956 33.224C27.165 33.224 25.8023 32.8973 24.6076 32.244C23.413 31.5907 22.4796 30.6573 21.8076 29.444C21.1356 28.2307 20.7996 26.812 20.7996 25.188C20.7996 23.564 21.1263 22.1453 21.7796 20.932C22.4516 19.7187 23.385 18.7853 24.5796 18.132C25.7743 17.4787 27.1463 17.152 28.6956 17.152C30.2076 17.152 31.5516 17.4693 32.7276 18.104C33.9036 18.7387 34.8183 19.644 35.4716 20.82C36.1436 21.996 36.4796 23.368 36.4796 24.936ZM31.5796 23.676C31.5796 22.8547 31.2996 22.2013 30.7396 21.716C30.1796 21.2307 29.4796 20.988 28.6396 20.988C27.837 20.988 27.1556 21.2213 26.5956 21.688C26.0543 22.1547 25.7183 22.8173 25.5876 23.676H31.5796ZM48.5255 17.208C50.3549 17.208 51.8109 17.8053 52.8935 19C53.9949 20.176 54.5455 21.8 54.5455 23.872V33H49.7855V24.516C49.7855 23.4707 49.5149 22.6587 48.9735 22.08C48.4322 21.5013 47.7042 21.212 46.7895 21.212C45.8749 21.212 45.1469 21.5013 44.6055 22.08C44.0642 22.6587 43.7935 23.4707 43.7935 24.516V33H39.0055V17.376H43.7935V19.448C44.2789 18.7573 44.9322 18.216 45.7535 17.824C46.5749 17.4133 47.4989 17.208 48.5255 17.208ZM56.9207 25.16C56.9207 23.5547 57.2194 22.1453 57.8167 20.932C58.4327 19.7187 59.2634 18.7853 60.3087 18.132C61.3541 17.4787 62.5207 17.152 63.8087 17.152C64.8354 17.152 65.7687 17.3667 66.6087 17.796C67.4674 18.2253 68.1394 18.804 68.6247 19.532V12.28H73.4127V33H68.6247V30.76C68.1767 31.5067 67.5327 32.104 66.6927 32.552C65.8714 33 64.9101 33.224 63.8087 33.224C62.5207 33.224 61.3541 32.8973 60.3087 32.244C59.2634 31.572 58.4327 30.6293 57.8167 29.416C57.2194 28.184 56.9207 26.7653 56.9207 25.16ZM68.6247 25.188C68.6247 23.9933 68.2887 23.0507 67.6167 22.36C66.9634 21.6693 66.1607 21.324 65.2087 21.324C64.2567 21.324 63.4447 21.6693 62.7727 22.36C62.1194 23.032 61.7927 23.9653 61.7927 25.16C61.7927 26.3547 62.1194 27.3067 62.7727 28.016C63.4447 28.7067 64.2567 29.052 65.2087 29.052C66.1607 29.052 66.9634 28.7067 67.6167 28.016C68.2887 27.3253 68.6247 26.3827 68.6247 25.188Z" fill="black"/>
<path d="M89.6726 13.344V17.18H81.6646V21.324H87.6566V25.048H81.6646V33H76.8766V13.344H89.6726ZM96.9771 12.28V33H92.1891V12.28H96.9771ZM115.175 24.936C115.175 25.384 115.147 25.8507 115.091 26.336H104.255C104.33 27.3067 104.638 28.0533 105.179 28.576C105.739 29.08 106.42 29.332 107.223 29.332C108.418 29.332 109.248 28.828 109.715 27.82H114.811C114.55 28.8467 114.074 29.7707 113.383 30.592C112.711 31.4133 111.862 32.0573 110.835 32.524C109.808 32.9907 108.66 33.224 107.391 33.224C105.86 33.224 104.498 32.8973 103.303 32.244C102.108 31.5907 101.175 30.6573 100.503 29.444C99.8309 28.2307 99.4949 26.812 99.4949 25.188C99.4949 23.564 99.8216 22.1453 100.475 20.932C101.147 19.7187 102.08 18.7853 103.275 18.132C104.47 17.4787 105.842 17.152 107.391 17.152C108.903 17.152 110.247 17.4693 111.423 18.104C112.599 18.7387 113.514 19.644 114.167 20.82C114.839 21.996 115.175 23.368 115.175 24.936ZM110.275 23.676C110.275 22.8547 109.995 22.2013 109.435 21.716C108.875 21.2307 108.175 20.988 107.335 20.988C106.532 20.988 105.851 21.2213 105.291 21.688C104.75 22.1547 104.414 22.8173 104.283 23.676H110.275ZM132.429 24.936C132.429 25.384 132.401 25.8507 132.345 26.336H121.509C121.584 27.3067 121.892 28.0533 122.433 28.576C122.993 29.08 123.674 29.332 124.477 29.332C125.672 29.332 126.502 28.828 126.969 27.82H132.065C131.804 28.8467 131.328 29.7707 130.637 30.592C129.965 31.4133 129.116 32.0573 128.089 32.524C127.062 32.9907 125.914 33.224 124.645 33.224C123.114 33.224 121.752 32.8973 120.557 32.244C119.362 31.5907 118.429 30.6573 117.757 29.444C117.085 28.2307 116.749 26.812 116.749 25.188C116.749 23.564 117.076 22.1453 117.729 20.932C118.401 19.7187 119.334 18.7853 120.529 18.132C121.724 17.4787 123.096 17.152 124.645 17.152C126.157 17.152 127.501 17.4693 128.677 18.104C129.853 18.7387 130.768 19.644 131.421 20.82C132.093 21.996 132.429 23.368 132.429 24.936ZM127.529 23.676C127.529 22.8547 127.249 22.2013 126.689 21.716C126.129 21.2307 125.429 20.988 124.589 20.988C123.786 20.988 123.105 21.2213 122.545 21.688C122.004 22.1547 121.668 22.8173 121.537 23.676H127.529ZM143.663 28.94V33H141.227C139.491 33 138.137 32.58 137.167 31.74C136.196 30.8813 135.711 29.4907 135.711 27.568V21.352H133.807V17.376H135.711V13.568H140.499V17.376H143.635V21.352H140.499V27.624C140.499 28.0907 140.611 28.4267 140.835 28.632C141.059 28.8373 141.432 28.94 141.955 28.94H143.663Z" fill="#F09A00"/>
<path d="M17.1227 6.81061C17.1227 9.07494 15.4791 11.0269 13.1068 11.9246C12.1076 12.3027 11.315 12.9666 10.8219 13.7664L10.1667 14.8293L9.51139 13.7664C9.01827 12.9666 8.22575 12.3027 7.2265 11.9246C4.85418 11.0269 3.21057 9.07494 3.21057 6.81061C3.21057 3.69636 6.32469 1.17078 10.1667 1.17078C14.0086 1.17078 17.1227 3.69636 17.1227 6.81061Z" fill="#F6B239"/>
<path d="M17.1226 6.81064C17.1226 9.07497 15.4781 11.0264 13.1077 11.9247C12.1074 12.3021 11.314 12.9666 10.8228 13.7665L10.1665 14.8293L9.67932 14.0407L9.84834 13.7665C10.3415 12.9666 11.1349 12.3021 12.1332 11.9247C14.5056 11.0264 16.1502 9.07494 16.1502 6.81061C16.1502 3.82859 13.2966 1.38688 9.68129 1.18528C9.84275 1.17555 10.0046 1.17071 10.1665 1.17078C14.0085 1.1708 17.1226 3.69639 17.1226 6.81064Z" fill="#F9F4F4"/>
<path d="M10.1411 10.7304C12.8516 10.7304 15.0489 8.94833 15.0489 6.75007C15.0489 4.55182 12.8516 2.76978 10.1411 2.76978C7.43058 2.76978 5.23328 4.55182 5.23328 6.75007C5.23328 8.94833 7.43058 10.7304 10.1411 10.7304Z" fill="white"/>
<path d="M10.1666 1C6.21491 1 3 3.60668 3 6.8106C3 9.06018 4.62399 11.1283 7.1374 12.0793C8.06117 12.429 8.8374 13.0552 9.32299 13.8426L9.97832 14.9056C9.99579 14.934 10.0227 14.9578 10.0559 14.9745C10.0892 14.9912 10.1275 15 10.1666 15C10.2058 15 10.2441 14.9912 10.2774 14.9745C10.3106 14.9578 10.3375 14.934 10.355 14.9056L11.0103 13.8428C11.4959 13.0553 12.2719 12.429 13.1957 12.0793C15.7093 11.1283 17.3333 9.06012 17.3333 6.81057C17.3333 3.60668 14.1183 1 10.1666 1ZM13.0177 11.7699C12.0082 12.1521 11.1614 12.8339 10.6336 13.6901L10.1666 14.4475L9.69963 13.6899C9.17178 12.8339 8.32501 12.1519 7.31537 11.7699C4.94968 10.8747 3.42109 8.92811 3.42109 6.81063C3.42109 3.79492 6.44709 1.34151 10.1666 1.34151C13.886 1.34151 16.9121 3.79492 16.9121 6.8106C16.9121 8.92811 15.3835 10.8747 13.0177 11.7699Z" fill="black"/>
<path d="M10.1413 2.599C7.31901 2.599 5.02283 4.46117 5.02283 6.75009C5.02283 9.03901 7.31901 10.9012 10.1413 10.9012C12.9635 10.9012 15.2596 9.03901 15.2596 6.75009C15.2596 4.46117 12.9635 2.599 10.1413 2.599ZM10.1413 10.5596C7.55112 10.5596 5.44392 8.85063 5.44392 6.75006C5.44392 4.6495 7.55112 2.94048 10.1413 2.94048C12.7314 2.94048 14.8385 4.6495 14.8385 6.75006C14.8385 8.85063 12.7314 10.5596 10.1413 10.5596Z" fill="black"/>
<path d="M12.5749 5.40745L9.40961 7.97451L7.65713 6.55323C7.57488 6.48652 7.44167 6.48652 7.35942 6.55323C7.27717 6.61993 7.27717 6.72797 7.35942 6.79468L9.26075 8.33668C9.30188 8.37003 9.35567 8.38669 9.40961 8.38669C9.46354 8.38669 9.51734 8.37003 9.55847 8.33668L12.8726 5.6489C12.9548 5.58219 12.9548 5.47416 12.8726 5.40745C12.7903 5.34075 12.6571 5.34075 12.5749 5.40745Z" fill="black"/>
</svg>
